<svg xmlns="http://www.w3.org/2000/svg" viewBox="0 0 64 64">
  <circle cx="32" cy="32" r="30" fill="#f5b942" stroke="#3a2317" stroke-width="4"/>
  <path d="M18 30 Q4 24 2 8 Q1 4 5 5 Q10 18 22 26 Z" fill="#f3ead8" stroke="#3a2317" stroke-width="2.5" stroke-linejoin="round"/>
  <path d="M46 30 Q60 24 62 8 Q63 4 59 5 Q54 18 42 26 Z" fill="#f3ead8" stroke="#3a2317" stroke-width="2.5" stroke-linejoin="round"/>
  <path d="M32 13 Q47 14 47 32 Q47 47 38 55 Q35 58 32 58 Q29 58 26 55 Q17 47 17 32 Q17 14 32 13 Z" fill="#f3ead8" stroke="#3a2317" stroke-width="3" stroke-linejoin="round"/>
  <ellipse cx="25.5" cy="31" rx="5.5" ry="7.5" fill="#3a2317"/>
  <ellipse cx="38.5" cy="31" rx="5.5" ry="7.5" fill="#3a2317"/>
  <path d="M28.5 43 Q32 40 35.5 43 Q35.5 49.5 32 52.5 Q28.5 49.5 28.5 43 Z" fill="#3a2317"/>
</svg>

